<?xml version="1.0" encoding="utf-8"?>
<!-- Svg Vector Icons : http://www.onlinewebfonts.com/icon -->
<!DOCTYPE svg PUBLIC "-//W3C//DTD SVG 1.1//EN" "http://www.w3.org/Graphics/SVG/1.1/DTD/svg11.dtd">
<svg version="1.1" xmlns="http://www.w3.org/2000/svg" xmlns:xlink="http://www.w3.org/1999/xlink" x="0px" y="0px" viewBox="0 0 256 256" enable-background="new 0 0 256 256" xml:space="preserve">
<metadata> Svg Vector Icons : http://www.onlinewebfonts.com/icon </metadata>
<g><g><g><path fill="#000000" d="M175.7,10.8c-8.9,1.6-17.9,5.6-25.1,11.1c-5.3,4.1-51.3,50.3-52.9,53.2l-1.2,2.1l2.1-0.4c8.4-1.5,18.3-1,27.9,1.5l4.9,1.2l18.5-18.4c16.4-16.3,19-18.6,22.5-20.3c12.4-5.7,25-3.7,35.1,5.8c7.9,7.5,10.6,13.5,10.6,23.6c0,7.2-1.1,11.4-4.5,16.6c-1,1.5-12.4,13.4-25.4,26.3c-22.2,22-23.8,23.5-27.9,25.4c-7.4,3.3-13.8,3.8-21.9,1.5c-4.6-1.2-7.3-2.7-11.5-6.3c-6-5-9.2-6-14.5-4.9c-4.6,1-9.3,5.7-10.3,10.3c-1.2,5.7,0.4,9.7,5.7,14.7c11.8,11.1,29.4,16.9,45.7,15c10.8-1.3,20.7-5.3,29.2-11.6c6-4.6,49.8-48.9,52.9-53.5c3.8-5.6,7.1-13.2,8.7-19.5c1.9-7.6,1.9-21-0.1-28.3c-5.2-19.5-20.9-36.3-39.9-42.8C196.2,10,184.6,9.2,175.7,10.8z"/><path fill="#000000" d="M101.1,87.5c-8.4,1.2-17.8,4.9-25.5,10c-4.5,3-48.9,47-53.5,53.1c-13.7,17.8-15.8,41.8-5.5,62.2c7.6,14.9,22.8,27.2,38.9,31.5c8.2,2.2,20.6,2.3,28.7,0.3c6.3-1.6,13.9-5,19.5-8.7c7.1-4.8,57-55.1,55.8-56.4c-0.1-0.1-2.8,0.1-5.9,0.4c-6.8,0.8-16.2,0-23.6-2l-4.9-1.4l-18.2,18.2c-10.5,10.5-19.4,18.8-21.1,19.8c-5.2,2.9-9,3.8-15.7,3.8c-9.8-0.1-15.9-2.9-23.3-10.7c-9.4-10-11.5-22.6-5.8-35.1c1.7-3.6,4.2-6.4,25.6-27.8c20.6-20.7,24.3-24.1,27.9-26c7.8-4.1,16.3-4.9,24.1-2.2c4.7,1.6,6.6,2.7,10.6,6.1c6,5,9.2,6,14.5,4.9c4.6-1,9.3-5.7,10.3-10.3c1.2-5.7-0.4-9.7-5.7-14.7c-3.9-3.8-10.7-8.2-15.7-10.5C123.9,88.1,110.3,86.2,101.1,87.5z"/></g></g></g>
</svg>